# xmcd
#
# Track frame offsets:
#	150
#	11232
#	28530
#	46673
#	68836
#	85339
#	98872
#	125239
#	140762
#	168655
#	189705
#	208377
#
# Disc length: 3075 seconds
# Revision: 0
# Processed by: cddbd v1.5.2PL0 Copyright (c) Steve Scherf et al.
# Submitted via: dBpowerAMP V12.0
#
DISCID=b50c010c
DTITLE=IND - From My Hood to Your Hood
DYEAR=2005
DGENRE=Gangsta
TTITLE0=At Your Door
TTITLE1=Last of A Dying Breed
TTITLE2=Hood to Hood
TTITLE3=All By My Lonely ft.Da Reapa
TTITLE4=Aint Worried BOut It
TTITLE5=Shirts OFF
TTITLE6=Gangsta Shit
TTITLE7=Midwest ft.DVS of Original Menace
TTITLE8=Gangsta Event ft.Payroll , J Dilla, And Insanity
TTITLE9=Dont Wanna  Be Right
TTITLE10=Rearrange It ft.KB Tha ANglo(TBG'z)
TTITLE11=Help Me Cope
EXTD=
EXTT0=
EXTT1=
EXTT2=
EXTT3=
EXTT4=
EXTT5=
EXTT6=
EXTT7=
EXTT8=
EXTT9=
EXTT10=
EXTT11=
PLAYORDER=
